<mxfile host="app.diagrams.net" agent="Mozilla/5.0 (Windows NT 10.0; Win64; x64) AppleWebKit/537.36 (KHTML, like Gecko) Chrome/133.0.0.0 Safari/537.36" version="26.1.0">
  <diagram name="Página-1" id="Lkx1n91LGzO9WXLAzct2">
    <mxGraphModel dx="778" dy="387" grid="1" gridSize="10" guides="1" tooltips="1" connect="1" arrows="1" fold="1" page="1" pageScale="1" pageWidth="827" pageHeight="1169" math="0" shadow="0">
      <root>
        <mxCell id="0" />
        <mxCell id="1" parent="0" />
        <mxCell id="pRiM5ZH4wtAWO_Kms3k7-1" value="Utilizador&lt;div&gt;Gestor do&lt;/div&gt;&lt;div&gt;Projeto&lt;/div&gt;" style="shape=umlActor;verticalLabelPosition=bottom;verticalAlign=top;html=1;" parent="1" vertex="1">
          <mxGeometry x="30" y="170" width="30" height="60" as="geometry" />
        </mxCell>
        <mxCell id="pRiM5ZH4wtAWO_Kms3k7-2" value="" style="rounded=1;whiteSpace=wrap;html=1;absoluteArcSize=1;arcSize=14;strokeWidth=2;" parent="1" vertex="1">
          <mxGeometry x="100" y="20" width="680" height="630" as="geometry" />
        </mxCell>
        <mxCell id="pRiM5ZH4wtAWO_Kms3k7-3" value="Utilizador&lt;div&gt;Membro do&lt;/div&gt;&lt;div&gt;Projeto&lt;/div&gt;" style="shape=umlActor;verticalLabelPosition=bottom;verticalAlign=top;html=1;" parent="1" vertex="1">
          <mxGeometry x="30" y="475" width="30" height="60" as="geometry" />
        </mxCell>
        <mxCell id="pRiM5ZH4wtAWO_Kms3k7-4" value="Sistema" style="shape=umlActor;verticalLabelPosition=bottom;verticalAlign=top;html=1;" parent="1" vertex="1">
          <mxGeometry x="827" y="170" width="30" height="60" as="geometry" />
        </mxCell>
        <mxCell id="pRiM5ZH4wtAWO_Kms3k7-6" value="Criar conta" style="strokeWidth=2;html=1;shape=mxgraph.flowchart.start_1;whiteSpace=wrap;" parent="1" vertex="1">
          <mxGeometry x="130" y="40" width="100" height="60" as="geometry" />
        </mxCell>
        <mxCell id="pRiM5ZH4wtAWO_Kms3k7-7" value="Fazer login" style="strokeWidth=2;html=1;shape=mxgraph.flowchart.start_1;whiteSpace=wrap;" parent="1" vertex="1">
          <mxGeometry x="140" y="120" width="100" height="60" as="geometry" />
        </mxCell>
        <mxCell id="pRiM5ZH4wtAWO_Kms3k7-8" value="Editar dados&lt;div&gt;da conta&lt;/div&gt;" style="strokeWidth=2;html=1;shape=mxgraph.flowchart.start_1;whiteSpace=wrap;" parent="1" vertex="1">
          <mxGeometry x="270" y="40" width="100" height="60" as="geometry" />
        </mxCell>
        <mxCell id="pRiM5ZH4wtAWO_Kms3k7-9" value="Criar projeto" style="strokeWidth=2;html=1;shape=mxgraph.flowchart.start_1;whiteSpace=wrap;" parent="1" vertex="1">
          <mxGeometry x="140" y="200" width="100" height="60" as="geometry" />
        </mxCell>
        <mxCell id="pRiM5ZH4wtAWO_Kms3k7-10" value="Editar informações do projeto" style="strokeWidth=2;html=1;shape=mxgraph.flowchart.start_1;whiteSpace=wrap;" parent="1" vertex="1">
          <mxGeometry x="340" y="140" width="110" height="70" as="geometry" />
        </mxCell>
        <mxCell id="pRiM5ZH4wtAWO_Kms3k7-11" value="Remover projeto" style="strokeWidth=2;html=1;shape=mxgraph.flowchart.start_1;whiteSpace=wrap;" parent="1" vertex="1">
          <mxGeometry x="390" y="70" width="100" height="60" as="geometry" />
        </mxCell>
        <mxCell id="pRiM5ZH4wtAWO_Kms3k7-12" value="Listar tarefas&lt;div&gt;em curso&lt;/div&gt;" style="strokeWidth=2;html=1;shape=mxgraph.flowchart.start_1;whiteSpace=wrap;" parent="1" vertex="1">
          <mxGeometry x="320" y="225" width="100" height="70" as="geometry" />
        </mxCell>
        <mxCell id="pRiM5ZH4wtAWO_Kms3k7-13" value="Listar tarefas terminadas entre duas datas" style="strokeWidth=2;html=1;shape=mxgraph.flowchart.start_1;whiteSpace=wrap;" parent="1" vertex="1">
          <mxGeometry x="315" y="310" width="110" height="70" as="geometry" />
        </mxCell>
        <mxCell id="pRiM5ZH4wtAWO_Kms3k7-14" value="Convidar um utilizador para um projeto" style="strokeWidth=2;html=1;shape=mxgraph.flowchart.start_1;whiteSpace=wrap;" parent="1" vertex="1">
          <mxGeometry x="315" y="390" width="110" height="70" as="geometry" />
        </mxCell>
        <mxCell id="pRiM5ZH4wtAWO_Kms3k7-15" value="Remover um utilizador convidado do projeto" style="strokeWidth=2;html=1;shape=mxgraph.flowchart.start_1;whiteSpace=wrap;" parent="1" vertex="1">
          <mxGeometry x="340" y="470" width="110" height="80" as="geometry" />
        </mxCell>
        <mxCell id="pRiM5ZH4wtAWO_Kms3k7-16" value="Gerar relatório mensal do projeto" style="strokeWidth=2;html=1;shape=mxgraph.flowchart.start_1;whiteSpace=wrap;" parent="1" vertex="1">
          <mxGeometry x="370" y="560" width="110" height="70" as="geometry" />
        </mxCell>
        <mxCell id="pRiM5ZH4wtAWO_Kms3k7-18" value="Iniciar uma tarefa" style="strokeWidth=2;html=1;shape=mxgraph.flowchart.start_1;whiteSpace=wrap;" parent="1" vertex="1">
          <mxGeometry x="651.25" y="350" width="93.75" height="60" as="geometry" />
        </mxCell>
        <mxCell id="pRiM5ZH4wtAWO_Kms3k7-19" value="Marcar tarefa como terminado" style="strokeWidth=2;html=1;shape=mxgraph.flowchart.start_1;whiteSpace=wrap;" parent="1" vertex="1">
          <mxGeometry x="490.01" y="300" width="95" height="60" as="geometry" />
        </mxCell>
        <mxCell id="pRiM5ZH4wtAWO_Kms3k7-20" value="Mover tarefa para outro projeto" style="strokeWidth=2;html=1;shape=mxgraph.flowchart.start_1;whiteSpace=wrap;" parent="1" vertex="1">
          <mxGeometry x="485.63" y="380" width="103.75" height="60" as="geometry" />
        </mxCell>
        <mxCell id="pRiM5ZH4wtAWO_Kms3k7-21" value="Remover uma tarefa" style="strokeWidth=2;html=1;shape=mxgraph.flowchart.start_1;whiteSpace=wrap;" parent="1" vertex="1">
          <mxGeometry x="510" y="565" width="100" height="60" as="geometry" />
        </mxCell>
        <mxCell id="pRiM5ZH4wtAWO_Kms3k7-22" value="Aceitar convite para um projeto" style="strokeWidth=2;html=1;shape=mxgraph.flowchart.start_1;whiteSpace=wrap;" parent="1" vertex="1">
          <mxGeometry x="130" y="470" width="100" height="70" as="geometry" />
        </mxCell>
        <mxCell id="pRiM5ZH4wtAWO_Kms3k7-23" value="Visualizar relatório pessoal mensal" style="strokeWidth=2;html=1;shape=mxgraph.flowchart.start_1;whiteSpace=wrap;" parent="1" vertex="1">
          <mxGeometry x="130" y="560" width="100" height="60" as="geometry" />
        </mxCell>
        <mxCell id="pRiM5ZH4wtAWO_Kms3k7-24" value="Validar dados&lt;div&gt;de login&lt;/div&gt;" style="strokeWidth=2;html=1;shape=mxgraph.flowchart.start_1;whiteSpace=wrap;" parent="1" vertex="1">
          <mxGeometry x="643.75" y="40" width="92.5" height="60" as="geometry" />
        </mxCell>
        <mxCell id="pRiM5ZH4wtAWO_Kms3k7-25" value="Armazenar o tempo dispendido nas tarefas em curso" style="strokeWidth=2;html=1;shape=mxgraph.flowchart.start_1;whiteSpace=wrap;" parent="1" vertex="1">
          <mxGeometry x="631.25" y="120" width="120" height="80" as="geometry" />
        </mxCell>
        <mxCell id="pRiM5ZH4wtAWO_Kms3k7-27" value="Notificar utilizadores sobre eventos importantes" style="strokeWidth=2;html=1;shape=mxgraph.flowchart.start_1;whiteSpace=wrap;" parent="1" vertex="1">
          <mxGeometry x="635" y="215" width="110" height="80" as="geometry" />
        </mxCell>
        <mxCell id="pRiM5ZH4wtAWO_Kms3k7-28" value="Utilizador&lt;div&gt;Membro do&lt;/div&gt;&lt;div&gt;Projeto&lt;/div&gt;" style="shape=umlActor;verticalLabelPosition=bottom;verticalAlign=top;html=1;" parent="1" vertex="1">
          <mxGeometry x="827" y="390" width="30" height="60" as="geometry" />
        </mxCell>
        <mxCell id="l1yu0yyEyZwug9ezfKJR-2" value="" style="endArrow=none;html=1;rounded=0;entryX=0.008;entryY=0.653;entryDx=0;entryDy=0;entryPerimeter=0;curved=1;" edge="1" parent="1" target="pRiM5ZH4wtAWO_Kms3k7-6">
          <mxGeometry width="50" height="50" relative="1" as="geometry">
            <mxPoint x="70" y="190" as="sourcePoint" />
            <mxPoint x="140" y="150" as="targetPoint" />
          </mxGeometry>
        </mxCell>
        <mxCell id="l1yu0yyEyZwug9ezfKJR-5" value="" style="endArrow=none;html=1;rounded=0;curved=1;entryX=0.047;entryY=0.729;entryDx=0;entryDy=0;entryPerimeter=0;" edge="1" parent="1" target="pRiM5ZH4wtAWO_Kms3k7-7">
          <mxGeometry width="50" height="50" relative="1" as="geometry">
            <mxPoint x="70" y="200" as="sourcePoint" />
            <mxPoint x="146" y="95" as="targetPoint" />
          </mxGeometry>
        </mxCell>
        <mxCell id="l1yu0yyEyZwug9ezfKJR-8" value="" style="endArrow=none;html=1;rounded=0;curved=1;entryX=0.017;entryY=0.398;entryDx=0;entryDy=0;entryPerimeter=0;" edge="1" parent="1" target="pRiM5ZH4wtAWO_Kms3k7-9">
          <mxGeometry width="50" height="50" relative="1" as="geometry">
            <mxPoint x="70" y="210" as="sourcePoint" />
            <mxPoint x="50" y="300" as="targetPoint" />
          </mxGeometry>
        </mxCell>
        <mxCell id="l1yu0yyEyZwug9ezfKJR-10" value="" style="endArrow=none;html=1;rounded=0;entryX=0;entryY=0.5;entryDx=0;entryDy=0;entryPerimeter=0;" edge="1" parent="1" target="pRiM5ZH4wtAWO_Kms3k7-22">
          <mxGeometry width="50" height="50" relative="1" as="geometry">
            <mxPoint x="70" y="505" as="sourcePoint" />
            <mxPoint x="130" y="500" as="targetPoint" />
          </mxGeometry>
        </mxCell>
        <mxCell id="l1yu0yyEyZwug9ezfKJR-12" value="" style="endArrow=none;html=1;rounded=0;entryX=0.026;entryY=0.313;entryDx=0;entryDy=0;entryPerimeter=0;" edge="1" parent="1" target="pRiM5ZH4wtAWO_Kms3k7-23">
          <mxGeometry width="50" height="50" relative="1" as="geometry">
            <mxPoint x="70" y="520" as="sourcePoint" />
            <mxPoint x="140" y="515" as="targetPoint" />
          </mxGeometry>
        </mxCell>
        <mxCell id="l1yu0yyEyZwug9ezfKJR-13" value="" style="endArrow=none;html=1;rounded=0;exitX=0.979;exitY=0.659;exitDx=0;exitDy=0;exitPerimeter=0;" edge="1" parent="1" source="pRiM5ZH4wtAWO_Kms3k7-24">
          <mxGeometry width="50" height="50" relative="1" as="geometry">
            <mxPoint x="760" y="130" as="sourcePoint" />
            <mxPoint x="820" y="190" as="targetPoint" />
          </mxGeometry>
        </mxCell>
        <mxCell id="l1yu0yyEyZwug9ezfKJR-15" value="" style="endArrow=none;html=1;rounded=0;exitX=0.981;exitY=0.668;exitDx=0;exitDy=0;exitPerimeter=0;" edge="1" parent="1" source="pRiM5ZH4wtAWO_Kms3k7-25">
          <mxGeometry width="50" height="50" relative="1" as="geometry">
            <mxPoint x="744" y="90" as="sourcePoint" />
            <mxPoint x="820" y="200" as="targetPoint" />
          </mxGeometry>
        </mxCell>
        <mxCell id="l1yu0yyEyZwug9ezfKJR-16" value="" style="endArrow=none;html=1;rounded=0;exitX=0.936;exitY=0.245;exitDx=0;exitDy=0;exitPerimeter=0;" edge="1" parent="1" source="pRiM5ZH4wtAWO_Kms3k7-27">
          <mxGeometry width="50" height="50" relative="1" as="geometry">
            <mxPoint x="754" y="100" as="sourcePoint" />
            <mxPoint x="820" y="210" as="targetPoint" />
          </mxGeometry>
        </mxCell>
        <mxCell id="l1yu0yyEyZwug9ezfKJR-25" value="Selecionar Projeto" style="strokeWidth=2;html=1;shape=mxgraph.flowchart.start_1;whiteSpace=wrap;" vertex="1" parent="1">
          <mxGeometry x="140" y="280" width="100" height="60" as="geometry" />
        </mxCell>
        <mxCell id="l1yu0yyEyZwug9ezfKJR-26" value="" style="endArrow=none;html=1;rounded=0;curved=1;entryX=0.06;entryY=0.26;entryDx=0;entryDy=0;entryPerimeter=0;" edge="1" parent="1" target="l1yu0yyEyZwug9ezfKJR-25">
          <mxGeometry width="50" height="50" relative="1" as="geometry">
            <mxPoint x="70" y="220" as="sourcePoint" />
            <mxPoint x="143" y="233" as="targetPoint" />
          </mxGeometry>
        </mxCell>
        <mxCell id="l1yu0yyEyZwug9ezfKJR-29" value="" style="endArrow=none;html=1;rounded=0;dashed=1;exitX=0.583;exitY=1.005;exitDx=0;exitDy=0;exitPerimeter=0;curved=1;entryX=0.085;entryY=0.228;entryDx=0;entryDy=0;entryPerimeter=0;startArrow=open;startFill=0;" edge="1" parent="1" source="l1yu0yyEyZwug9ezfKJR-25" target="pRiM5ZH4wtAWO_Kms3k7-16">
          <mxGeometry width="50" height="50" relative="1" as="geometry">
            <mxPoint x="170" y="410" as="sourcePoint" />
            <mxPoint x="220" y="360" as="targetPoint" />
            <Array as="points">
              <mxPoint x="250" y="490" />
            </Array>
          </mxGeometry>
        </mxCell>
        <mxCell id="l1yu0yyEyZwug9ezfKJR-65" value="&amp;lt;&amp;lt;extends&amp;gt;&amp;gt;" style="edgeLabel;html=1;align=center;verticalAlign=middle;resizable=0;points=[];" vertex="1" connectable="0" parent="l1yu0yyEyZwug9ezfKJR-29">
          <mxGeometry x="0.1098" y="17" relative="1" as="geometry">
            <mxPoint as="offset" />
          </mxGeometry>
        </mxCell>
        <mxCell id="l1yu0yyEyZwug9ezfKJR-34" value="" style="endArrow=none;html=1;rounded=0;entryX=0.06;entryY=0.246;entryDx=0;entryDy=0;entryPerimeter=0;exitX=0.855;exitY=0.855;exitDx=0;exitDy=0;exitPerimeter=0;curved=1;dashed=1;startArrow=open;startFill=0;" edge="1" parent="1" source="l1yu0yyEyZwug9ezfKJR-25" target="pRiM5ZH4wtAWO_Kms3k7-14">
          <mxGeometry width="50" height="50" relative="1" as="geometry">
            <mxPoint x="226" y="341" as="sourcePoint" />
            <mxPoint x="350" y="530" as="targetPoint" />
            <Array as="points">
              <mxPoint x="260" y="380" />
            </Array>
          </mxGeometry>
        </mxCell>
        <mxCell id="l1yu0yyEyZwug9ezfKJR-63" value="&amp;lt;&amp;lt;extends&amp;gt;&amp;gt;" style="edgeLabel;html=1;align=center;verticalAlign=middle;resizable=0;points=[];" vertex="1" connectable="0" parent="l1yu0yyEyZwug9ezfKJR-34">
          <mxGeometry x="0.0582" y="8" relative="1" as="geometry">
            <mxPoint x="10" y="4" as="offset" />
          </mxGeometry>
        </mxCell>
        <mxCell id="l1yu0yyEyZwug9ezfKJR-35" value="" style="endArrow=none;html=1;rounded=0;exitX=0.706;exitY=0.953;exitDx=0;exitDy=0;exitPerimeter=0;curved=1;dashed=1;entryX=0.069;entryY=0.233;entryDx=0;entryDy=0;entryPerimeter=0;startFill=0;startArrow=open;" edge="1" parent="1" source="l1yu0yyEyZwug9ezfKJR-25" target="pRiM5ZH4wtAWO_Kms3k7-15">
          <mxGeometry width="50" height="50" relative="1" as="geometry">
            <mxPoint x="260" y="440" as="sourcePoint" />
            <mxPoint x="310" y="390" as="targetPoint" />
            <Array as="points">
              <mxPoint x="260" y="430" />
            </Array>
          </mxGeometry>
        </mxCell>
        <mxCell id="l1yu0yyEyZwug9ezfKJR-64" value="&amp;lt;&amp;lt;extends&amp;gt;&amp;gt;" style="edgeLabel;html=1;align=center;verticalAlign=middle;resizable=0;points=[];" vertex="1" connectable="0" parent="l1yu0yyEyZwug9ezfKJR-35">
          <mxGeometry x="0.0872" y="11" relative="1" as="geometry">
            <mxPoint as="offset" />
          </mxGeometry>
        </mxCell>
        <mxCell id="l1yu0yyEyZwug9ezfKJR-36" value="" style="endArrow=none;html=1;rounded=0;entryX=0.006;entryY=0.391;entryDx=0;entryDy=0;entryPerimeter=0;exitX=0.988;exitY=0.617;exitDx=0;exitDy=0;exitPerimeter=0;dashed=1;curved=1;startFill=0;startArrow=open;" edge="1" parent="1" source="l1yu0yyEyZwug9ezfKJR-25" target="pRiM5ZH4wtAWO_Kms3k7-13">
          <mxGeometry width="50" height="50" relative="1" as="geometry">
            <mxPoint x="236" y="351" as="sourcePoint" />
            <mxPoint x="360" y="540" as="targetPoint" />
            <Array as="points">
              <mxPoint x="260" y="332" />
            </Array>
          </mxGeometry>
        </mxCell>
        <mxCell id="l1yu0yyEyZwug9ezfKJR-62" value="&amp;lt;&amp;lt;extends&amp;gt;&amp;gt;" style="edgeLabel;html=1;align=center;verticalAlign=middle;resizable=0;points=[];" vertex="1" connectable="0" parent="l1yu0yyEyZwug9ezfKJR-36">
          <mxGeometry x="-0.2461" relative="1" as="geometry">
            <mxPoint x="25" y="-12" as="offset" />
          </mxGeometry>
        </mxCell>
        <mxCell id="l1yu0yyEyZwug9ezfKJR-37" value="" style="endArrow=none;html=1;rounded=0;entryX=0;entryY=0.5;entryDx=0;entryDy=0;entryPerimeter=0;exitX=0.793;exitY=0.103;exitDx=0;exitDy=0;exitPerimeter=0;curved=1;dashed=1;startArrow=open;startFill=0;" edge="1" parent="1" source="l1yu0yyEyZwug9ezfKJR-25" target="pRiM5ZH4wtAWO_Kms3k7-11">
          <mxGeometry width="50" height="50" relative="1" as="geometry">
            <mxPoint x="240" y="320" as="sourcePoint" />
            <mxPoint x="307" y="337" as="targetPoint" />
            <Array as="points">
              <mxPoint x="290" y="180" />
            </Array>
          </mxGeometry>
        </mxCell>
        <mxCell id="l1yu0yyEyZwug9ezfKJR-59" value="&amp;lt;&amp;lt;extends&amp;gt;&amp;gt;" style="edgeLabel;html=1;align=center;verticalAlign=middle;resizable=0;points=[];" vertex="1" connectable="0" parent="l1yu0yyEyZwug9ezfKJR-37">
          <mxGeometry x="0.2676" y="-3" relative="1" as="geometry">
            <mxPoint x="-29" y="29" as="offset" />
          </mxGeometry>
        </mxCell>
        <mxCell id="l1yu0yyEyZwug9ezfKJR-38" value="" style="endArrow=none;html=1;rounded=0;entryX=0.043;entryY=0.723;entryDx=0;entryDy=0;entryPerimeter=0;exitX=0.917;exitY=0.251;exitDx=0;exitDy=0;exitPerimeter=0;curved=1;dashed=1;startFill=0;startArrow=open;" edge="1" parent="1" source="l1yu0yyEyZwug9ezfKJR-25" target="pRiM5ZH4wtAWO_Kms3k7-10">
          <mxGeometry width="50" height="50" relative="1" as="geometry">
            <mxPoint x="250" y="330" as="sourcePoint" />
            <mxPoint x="317" y="347" as="targetPoint" />
            <Array as="points">
              <mxPoint x="280" y="230" />
            </Array>
          </mxGeometry>
        </mxCell>
        <mxCell id="l1yu0yyEyZwug9ezfKJR-60" value="&amp;lt;&amp;lt;extends&amp;gt;&amp;gt;" style="edgeLabel;html=1;align=center;verticalAlign=middle;resizable=0;points=[];" vertex="1" connectable="0" parent="l1yu0yyEyZwug9ezfKJR-38">
          <mxGeometry x="0.4712" y="-4" relative="1" as="geometry">
            <mxPoint x="3" as="offset" />
          </mxGeometry>
        </mxCell>
        <mxCell id="l1yu0yyEyZwug9ezfKJR-39" value="" style="endArrow=none;html=1;rounded=0;entryX=0;entryY=0.5;entryDx=0;entryDy=0;entryPerimeter=0;exitX=0.982;exitY=0.39;exitDx=0;exitDy=0;exitPerimeter=0;curved=1;dashed=1;startArrow=open;startFill=0;" edge="1" parent="1" source="l1yu0yyEyZwug9ezfKJR-25" target="pRiM5ZH4wtAWO_Kms3k7-12">
          <mxGeometry width="50" height="50" relative="1" as="geometry">
            <mxPoint x="260" y="340" as="sourcePoint" />
            <mxPoint x="327" y="357" as="targetPoint" />
            <Array as="points">
              <mxPoint x="280" y="270" />
            </Array>
          </mxGeometry>
        </mxCell>
        <mxCell id="l1yu0yyEyZwug9ezfKJR-61" value="&amp;lt;&amp;lt;extends&amp;gt;&amp;gt;" style="edgeLabel;html=1;align=center;verticalAlign=middle;resizable=0;points=[];" vertex="1" connectable="0" parent="l1yu0yyEyZwug9ezfKJR-39">
          <mxGeometry x="0.4965" relative="1" as="geometry">
            <mxPoint x="-7" y="14" as="offset" />
          </mxGeometry>
        </mxCell>
        <mxCell id="l1yu0yyEyZwug9ezfKJR-40" value="Selecionar uma tarefa" style="strokeWidth=2;html=1;shape=mxgraph.flowchart.start_1;whiteSpace=wrap;" vertex="1" parent="1">
          <mxGeometry x="651.25" y="440" width="93.75" height="60" as="geometry" />
        </mxCell>
        <mxCell id="l1yu0yyEyZwug9ezfKJR-41" value="Desassociar tarefa" style="strokeWidth=2;html=1;shape=mxgraph.flowchart.start_1;whiteSpace=wrap;" vertex="1" parent="1">
          <mxGeometry x="481.25" y="460" width="112.5" height="60" as="geometry" />
        </mxCell>
        <mxCell id="l1yu0yyEyZwug9ezfKJR-43" value="" style="endArrow=none;html=1;rounded=0;exitX=0.313;exitY=0.023;exitDx=0;exitDy=0;exitPerimeter=0;entryX=0.855;entryY=0.855;entryDx=0;entryDy=0;entryPerimeter=0;curved=1;dashed=1;startFill=0;startArrow=open;" edge="1" parent="1" source="l1yu0yyEyZwug9ezfKJR-40" target="pRiM5ZH4wtAWO_Kms3k7-19">
          <mxGeometry width="50" height="50" relative="1" as="geometry">
            <mxPoint x="620" y="400" as="sourcePoint" />
            <mxPoint x="670" y="350" as="targetPoint" />
          </mxGeometry>
        </mxCell>
        <mxCell id="l1yu0yyEyZwug9ezfKJR-67" value="&amp;lt;&amp;lt;extends&amp;gt;&amp;gt;" style="edgeLabel;html=1;align=center;verticalAlign=middle;resizable=0;points=[];" vertex="1" connectable="0" parent="l1yu0yyEyZwug9ezfKJR-43">
          <mxGeometry x="0.0586" relative="1" as="geometry">
            <mxPoint x="-13" y="-13" as="offset" />
          </mxGeometry>
        </mxCell>
        <mxCell id="l1yu0yyEyZwug9ezfKJR-44" value="" style="endArrow=none;html=1;rounded=0;exitX=0.073;exitY=0.217;exitDx=0;exitDy=0;exitPerimeter=0;entryX=0.972;entryY=0.688;entryDx=0;entryDy=0;entryPerimeter=0;curved=1;dashed=1;startArrow=open;startFill=0;" edge="1" parent="1" source="l1yu0yyEyZwug9ezfKJR-40" target="pRiM5ZH4wtAWO_Kms3k7-20">
          <mxGeometry width="50" height="50" relative="1" as="geometry">
            <mxPoint x="691" y="451" as="sourcePoint" />
            <mxPoint x="604" y="376" as="targetPoint" />
          </mxGeometry>
        </mxCell>
        <mxCell id="l1yu0yyEyZwug9ezfKJR-68" value="&amp;lt;&amp;lt;extends&amp;gt;&amp;gt;" style="edgeLabel;html=1;align=center;verticalAlign=middle;resizable=0;points=[];" vertex="1" connectable="0" parent="l1yu0yyEyZwug9ezfKJR-44">
          <mxGeometry x="-0.003" y="-1" relative="1" as="geometry">
            <mxPoint as="offset" />
          </mxGeometry>
        </mxCell>
        <mxCell id="l1yu0yyEyZwug9ezfKJR-45" value="" style="endArrow=none;html=1;rounded=0;entryX=1;entryY=0.5;entryDx=0;entryDy=0;entryPerimeter=0;exitX=0.073;exitY=0.762;exitDx=0;exitDy=0;exitPerimeter=0;curved=1;dashed=1;startFill=0;startArrow=open;" edge="1" parent="1" source="l1yu0yyEyZwug9ezfKJR-40" target="l1yu0yyEyZwug9ezfKJR-41">
          <mxGeometry width="50" height="50" relative="1" as="geometry">
            <mxPoint x="840" y="570" as="sourcePoint" />
            <mxPoint x="614" y="386" as="targetPoint" />
          </mxGeometry>
        </mxCell>
        <mxCell id="l1yu0yyEyZwug9ezfKJR-70" value="&amp;lt;&amp;lt;extends&amp;gt;&amp;gt;" style="edgeLabel;html=1;align=center;verticalAlign=middle;resizable=0;points=[];" vertex="1" connectable="0" parent="l1yu0yyEyZwug9ezfKJR-45">
          <mxGeometry x="-0.1101" y="-1" relative="1" as="geometry">
            <mxPoint x="2" y="13" as="offset" />
          </mxGeometry>
        </mxCell>
        <mxCell id="l1yu0yyEyZwug9ezfKJR-46" value="" style="endArrow=classic;html=1;rounded=0;entryX=0.855;entryY=0.145;entryDx=0;entryDy=0;entryPerimeter=0;exitX=0.344;exitY=0.992;exitDx=0;exitDy=0;exitPerimeter=0;curved=1;dashed=1;" edge="1" parent="1" source="l1yu0yyEyZwug9ezfKJR-40" target="pRiM5ZH4wtAWO_Kms3k7-21">
          <mxGeometry width="50" height="50" relative="1" as="geometry">
            <mxPoint x="830" y="540" as="sourcePoint" />
            <mxPoint x="670" y="560" as="targetPoint" />
          </mxGeometry>
        </mxCell>
        <mxCell id="l1yu0yyEyZwug9ezfKJR-71" value="&amp;lt;&amp;lt;extends&amp;gt;&amp;gt;" style="edgeLabel;html=1;align=center;verticalAlign=middle;resizable=0;points=[];" vertex="1" connectable="0" parent="l1yu0yyEyZwug9ezfKJR-46">
          <mxGeometry x="-0.1376" y="3" relative="1" as="geometry">
            <mxPoint as="offset" />
          </mxGeometry>
        </mxCell>
        <mxCell id="l1yu0yyEyZwug9ezfKJR-48" value="" style="endArrow=none;html=1;rounded=0;exitX=0.145;exitY=0.855;exitDx=0;exitDy=0;exitPerimeter=0;entryX=0.145;entryY=0.145;entryDx=0;entryDy=0;entryPerimeter=0;curved=1;dashed=1;startArrow=open;startFill=0;endFill=0;" edge="1" parent="1" source="l1yu0yyEyZwug9ezfKJR-41" target="pRiM5ZH4wtAWO_Kms3k7-21">
          <mxGeometry width="50" height="50" relative="1" as="geometry">
            <mxPoint x="530" y="560" as="sourcePoint" />
            <mxPoint x="580" y="510" as="targetPoint" />
            <Array as="points">
              <mxPoint x="490" y="560" />
            </Array>
          </mxGeometry>
        </mxCell>
        <mxCell id="l1yu0yyEyZwug9ezfKJR-49" value="&amp;lt;&amp;lt;extends&amp;gt;&amp;gt;" style="edgeLabel;html=1;align=center;verticalAlign=middle;resizable=0;points=[];" vertex="1" connectable="0" parent="l1yu0yyEyZwug9ezfKJR-48">
          <mxGeometry x="-0.2538" y="8" relative="1" as="geometry">
            <mxPoint y="-5" as="offset" />
          </mxGeometry>
        </mxCell>
        <mxCell id="l1yu0yyEyZwug9ezfKJR-50" value="" style="endArrow=none;html=1;rounded=0;entryX=0.059;entryY=0.762;entryDx=0;entryDy=0;entryPerimeter=0;" edge="1" parent="1" target="pRiM5ZH4wtAWO_Kms3k7-6">
          <mxGeometry width="50" height="50" relative="1" as="geometry">
            <mxPoint x="70" y="490" as="sourcePoint" />
            <mxPoint x="40" y="350" as="targetPoint" />
          </mxGeometry>
        </mxCell>
        <mxCell id="l1yu0yyEyZwug9ezfKJR-51" value="" style="endArrow=none;html=1;rounded=0;entryX=0.081;entryY=0.774;entryDx=0;entryDy=0;entryPerimeter=0;" edge="1" parent="1" target="pRiM5ZH4wtAWO_Kms3k7-7">
          <mxGeometry width="50" height="50" relative="1" as="geometry">
            <mxPoint x="70" y="490" as="sourcePoint" />
            <mxPoint x="30" y="110" as="targetPoint" />
          </mxGeometry>
        </mxCell>
        <mxCell id="l1yu0yyEyZwug9ezfKJR-52" value="" style="endArrow=open;html=1;rounded=0;entryX=0.145;entryY=0.145;entryDx=0;entryDy=0;entryPerimeter=0;exitX=0.855;exitY=0.145;exitDx=0;exitDy=0;exitPerimeter=0;curved=1;dashed=1;endFill=0;" edge="1" parent="1" source="pRiM5ZH4wtAWO_Kms3k7-6" target="pRiM5ZH4wtAWO_Kms3k7-8">
          <mxGeometry width="50" height="50" relative="1" as="geometry">
            <mxPoint x="220" y="60" as="sourcePoint" />
            <mxPoint x="270" y="10" as="targetPoint" />
            <Array as="points">
              <mxPoint x="250" y="40" />
            </Array>
          </mxGeometry>
        </mxCell>
        <mxCell id="l1yu0yyEyZwug9ezfKJR-54" value="&amp;lt;&amp;lt;includes&amp;gt;&amp;gt;" style="edgeLabel;html=1;align=center;verticalAlign=middle;resizable=0;points=[];" vertex="1" connectable="0" parent="l1yu0yyEyZwug9ezfKJR-52">
          <mxGeometry x="0.3379" y="-3" relative="1" as="geometry">
            <mxPoint x="-11" y="-11" as="offset" />
          </mxGeometry>
        </mxCell>
        <mxCell id="l1yu0yyEyZwug9ezfKJR-55" value="" style="endArrow=none;html=1;rounded=0;entryX=0.145;entryY=0.855;entryDx=0;entryDy=0;entryPerimeter=0;exitX=0.855;exitY=0.145;exitDx=0;exitDy=0;exitPerimeter=0;curved=1;dashed=1;startArrow=open;startFill=0;" edge="1" parent="1" source="pRiM5ZH4wtAWO_Kms3k7-7" target="pRiM5ZH4wtAWO_Kms3k7-8">
          <mxGeometry width="50" height="50" relative="1" as="geometry">
            <mxPoint x="230" y="150" as="sourcePoint" />
            <mxPoint x="280" y="100" as="targetPoint" />
            <Array as="points">
              <mxPoint x="260" y="120" />
            </Array>
          </mxGeometry>
        </mxCell>
        <mxCell id="l1yu0yyEyZwug9ezfKJR-56" value="&amp;lt;&amp;lt;extends&amp;gt;&amp;gt;" style="edgeLabel;html=1;align=center;verticalAlign=middle;resizable=0;points=[];" vertex="1" connectable="0" parent="l1yu0yyEyZwug9ezfKJR-55">
          <mxGeometry x="0.2803" y="2" relative="1" as="geometry">
            <mxPoint as="offset" />
          </mxGeometry>
        </mxCell>
        <mxCell id="l1yu0yyEyZwug9ezfKJR-57" value="" style="endArrow=none;html=1;rounded=0;exitX=1;exitY=0.5;exitDx=0;exitDy=0;exitPerimeter=0;" edge="1" parent="1" source="pRiM5ZH4wtAWO_Kms3k7-18">
          <mxGeometry width="50" height="50" relative="1" as="geometry">
            <mxPoint x="780" y="430" as="sourcePoint" />
            <mxPoint x="820" y="420" as="targetPoint" />
          </mxGeometry>
        </mxCell>
        <mxCell id="l1yu0yyEyZwug9ezfKJR-58" value="" style="endArrow=none;html=1;rounded=0;exitX=1;exitY=0.5;exitDx=0;exitDy=0;exitPerimeter=0;" edge="1" parent="1" source="l1yu0yyEyZwug9ezfKJR-40">
          <mxGeometry width="50" height="50" relative="1" as="geometry">
            <mxPoint x="755" y="390" as="sourcePoint" />
            <mxPoint x="820" y="430" as="targetPoint" />
          </mxGeometry>
        </mxCell>
      </root>
    </mxGraphModel>
  </diagram>
</mxfile>
